<svg width="64" height="64" viewBox="0 0 64 64" fill="none" xmlns="http://www.w3.org/2000/svg">
  <rect width="64" height="64" rx="32" fill="#17130D"/>
  <path d="M16 19H29V35.5C29 43.2 24.4 47 18.2 47C16.5 47 15 46.7 13.8 46.2L15.6 40.8C16.3 41.1 17 41.2 17.8 41.2C20.5 41.2 22 39.5 22 35.9V24.8H16V19Z" fill="#F7F4EE"/>
  <path d="M34.2 39.2C36.1 40.7 38.4 41.6 40.6 41.6C43 41.6 44.4 40.7 44.4 39.1C44.4 37.6 43.2 36.9 39.8 35.8C35.4 34.4 32.4 32.2 32.4 27.5C32.4 22.2 36.7 18.5 42.7 18.5C46.1 18.5 49 19.4 51.3 21.1L48.2 26.2C46.4 25 44.6 24.4 42.7 24.4C40.6 24.4 39.4 25.3 39.4 26.7C39.4 28.1 40.8 28.8 44.2 30C48.9 31.6 51.4 33.9 51.4 38.3C51.4 43.8 47.2 47.4 40.4 47.4C36.5 47.4 33 46.3 30.3 44.2L34.2 39.2Z" fill="#8A3B2F"/>
</svg>
